<mxfile host="65bd71144e">
    <diagram id="5msmag-Izgt41DqcvuM8" name="Page-1">
        <mxGraphModel dx="2269" dy="1040" grid="1" gridSize="10" guides="1" tooltips="1" connect="1" arrows="1" fold="1" page="1" pageScale="1" pageWidth="827" pageHeight="1169" background="#FFFFFF" math="0" shadow="0">
            <root>
                <mxCell id="0"/>
                <mxCell id="1" parent="0"/>
                <mxCell id="5" style="edgeStyle=none;html=1;exitX=0.5;exitY=1;exitDx=0;exitDy=0;entryX=0.5;entryY=0;entryDx=0;entryDy=0;" parent="1" source="3" target="4" edge="1">
                    <mxGeometry relative="1" as="geometry"/>
                </mxCell>
                <mxCell id="3" value="Arrivé au début du labyrinthe" style="rounded=1;whiteSpace=wrap;html=1;" parent="1" vertex="1">
                    <mxGeometry x="186.25" y="240" width="120" height="60" as="geometry"/>
                </mxCell>
                <mxCell id="54" value="" style="edgeStyle=none;html=1;" parent="1" source="4" target="53" edge="1">
                    <mxGeometry relative="1" as="geometry"/>
                </mxCell>
                <mxCell id="59" value="Porte 1" style="edgeLabel;html=1;align=center;verticalAlign=middle;resizable=0;points=[];" parent="54" vertex="1" connectable="0">
                    <mxGeometry x="0.2522" y="-1" relative="1" as="geometry">
                        <mxPoint x="-27" y="-1" as="offset"/>
                    </mxGeometry>
                </mxCell>
                <mxCell id="56" value="" style="edgeStyle=none;html=1;exitX=0.5;exitY=1;exitDx=0;exitDy=0;" parent="1" source="4" target="55" edge="1">
                    <mxGeometry relative="1" as="geometry"/>
                </mxCell>
                <mxCell id="4" value="&lt;p style=&quot;line-height: 1.2&quot;&gt;&lt;font style=&quot;font-size: 12px&quot;&gt;Deux portes se&lt;/font&gt;&lt;span&gt;&amp;nbsp;présentent à vos yeux&lt;/span&gt;&lt;/p&gt;" style="rhombus;whiteSpace=wrap;html=1;align=center;spacing=2;verticalAlign=middle;horizontal=1;" parent="1" vertex="1">
                    <mxGeometry x="183.75" y="379.79" width="125" height="130.43" as="geometry"/>
                </mxCell>
                <mxCell id="32" value="&lt;p style=&quot;line-height: 1&quot;&gt;&lt;/p&gt;&lt;h1 style=&quot;text-align: left ; font-size: 16px&quot;&gt;&lt;br&gt;&lt;/h1&gt;&lt;p style=&quot;text-align: left ; font-size: 16px&quot;&gt;&lt;br&gt;&lt;/p&gt;&lt;p&gt;&lt;/p&gt;" style="text;html=1;strokeColor=none;fillColor=none;spacing=5;spacingTop=-20;whiteSpace=wrap;overflow=hidden;rounded=0;horizontal=1;verticalAlign=top;labelPosition=center;verticalLabelPosition=middle;align=center;spacingLeft=0;spacingRight=80;" parent="1" vertex="1">
                    <mxGeometry x="5" y="10" width="205" height="220" as="geometry"/>
                </mxCell>
                <mxCell id="73" style="html=1;exitX=0.5;exitY=0;exitDx=0;exitDy=0;entryX=1;entryY=0.5;entryDx=0;entryDy=0;edgeStyle=orthogonalEdgeStyle;elbow=vertical;" parent="1" source="53" target="3" edge="1">
                    <mxGeometry relative="1" as="geometry"/>
                </mxCell>
                <mxCell id="53" value="Vous croisez un minotaure et il vous tue, vous recommencer depuis le début" style="rounded=1;whiteSpace=wrap;html=1;" parent="1" vertex="1">
                    <mxGeometry x="414" y="397.5" width="120" height="95" as="geometry"/>
                </mxCell>
                <mxCell id="64" value="" style="edgeStyle=none;html=1;exitX=0.5;exitY=1;exitDx=0;exitDy=0;entryX=0.5;entryY=0;entryDx=0;entryDy=0;" parent="1" source="55" target="63" edge="1">
                    <mxGeometry relative="1" as="geometry">
                        <Array as="points"/>
                    </mxGeometry>
                </mxCell>
                <mxCell id="80" value="Vous répondez bien à la question" style="edgeLabel;html=1;align=center;verticalAlign=middle;resizable=0;points=[];" parent="64" vertex="1" connectable="0">
                    <mxGeometry x="-0.2421" relative="1" as="geometry">
                        <mxPoint as="offset"/>
                    </mxGeometry>
                </mxCell>
                <mxCell id="75" value="" style="html=1;elbow=vertical;entryX=0;entryY=0.5;entryDx=0;entryDy=0;exitX=1;exitY=0.5;exitDx=0;exitDy=0;" parent="1" source="55" target="74" edge="1">
                    <mxGeometry relative="1" as="geometry">
                        <mxPoint x="306.25" y="644.9779151943463" as="sourcePoint"/>
                        <mxPoint x="540" y="640.0220848056538" as="targetPoint"/>
                    </mxGeometry>
                </mxCell>
                <mxCell id="78" value="vous répondez mal à la question" style="edgeLabel;html=1;align=center;verticalAlign=middle;resizable=0;points=[];" parent="75" vertex="1" connectable="0">
                    <mxGeometry x="-0.2154" y="-2" relative="1" as="geometry">
                        <mxPoint x="16" y="-2" as="offset"/>
                    </mxGeometry>
                </mxCell>
                <mxCell id="55" value="Vous arrivez devant un sphinx qui vous présente une énigme" style="rounded=1;whiteSpace=wrap;html=1;" parent="1" vertex="1">
                    <mxGeometry x="186.25" y="590" width="120" height="105" as="geometry"/>
                </mxCell>
                <mxCell id="60" value="Porte 2" style="edgeLabel;html=1;align=center;verticalAlign=middle;resizable=0;points=[];" parent="1" vertex="1" connectable="0">
                    <mxGeometry x="240" y="520" as="geometry">
                        <mxPoint x="5" y="21" as="offset"/>
                    </mxGeometry>
                </mxCell>
                <mxCell id="66" value="" style="edgeStyle=none;html=1;exitX=0.5;exitY=1;exitDx=0;exitDy=0;entryX=0.5;entryY=0;entryDx=0;entryDy=0;" parent="1" source="63" edge="1" target="105">
                    <mxGeometry relative="1" as="geometry">
                        <mxPoint x="250" y="960" as="targetPoint"/>
                    </mxGeometry>
                </mxCell>
                <mxCell id="90" value="Prendre la porte du future" style="edgeLabel;html=1;align=center;verticalAlign=middle;resizable=0;points=[];" parent="66" vertex="1" connectable="0">
                    <mxGeometry x="-0.2903" relative="1" as="geometry">
                        <mxPoint as="offset"/>
                    </mxGeometry>
                </mxCell>
                <mxCell id="85" value="" style="edgeStyle=orthogonalEdgeStyle;html=1;elbow=vertical;" parent="1" source="63" target="84" edge="1">
                    <mxGeometry relative="1" as="geometry"/>
                </mxCell>
                <mxCell id="89" value="Prendre la porte du passé" style="edgeLabel;html=1;align=center;verticalAlign=middle;resizable=0;points=[];" parent="85" vertex="1" connectable="0">
                    <mxGeometry x="0.0825" y="-3" relative="1" as="geometry">
                        <mxPoint x="-8" y="-3" as="offset"/>
                    </mxGeometry>
                </mxCell>
                <mxCell id="87" value="Prendre la porte présent" style="edgeStyle=orthogonalEdgeStyle;html=1;elbow=vertical;" parent="1" source="63" target="86" edge="1">
                    <mxGeometry relative="1" as="geometry"/>
                </mxCell>
                <mxCell id="63" value="Vous arrivé devant une &lt;br&gt;autre porte où&amp;nbsp;vous croiser 3 portes" style="rhombus;whiteSpace=wrap;html=1;rounded=1;arcSize=0;horizontal=1;verticalAlign=middle;labelPosition=center;verticalLabelPosition=middle;align=center;" parent="1" vertex="1">
                    <mxGeometry x="157.5" y="741.88" width="177.5" height="153.75" as="geometry"/>
                </mxCell>
                <mxCell id="68" value="" style="edgeStyle=none;html=1;exitX=0.5;exitY=1;exitDx=0;exitDy=0;entryX=0.5;entryY=0;entryDx=0;entryDy=0;" parent="1" target="67" edge="1" source="105">
                    <mxGeometry relative="1" as="geometry">
                        <mxPoint x="244.3850000000001" y="1038.1299999999999" as="sourcePoint"/>
                        <mxPoint x="248.13" y="1100" as="targetPoint"/>
                        <Array as="points"/>
                    </mxGeometry>
                </mxCell>
                <mxCell id="91" value="Oui" style="edgeLabel;html=1;align=center;verticalAlign=middle;resizable=0;points=[];" parent="68" vertex="1" connectable="0">
                    <mxGeometry x="-0.3" y="3" relative="1" as="geometry">
                        <mxPoint x="-2" y="6" as="offset"/>
                    </mxGeometry>
                </mxCell>
                <mxCell id="93" value="" style="edgeStyle=orthogonalEdgeStyle;html=1;elbow=vertical;" parent="1" target="92" edge="1">
                    <mxGeometry relative="1" as="geometry">
                        <mxPoint x="310" y="990" as="sourcePoint"/>
                    </mxGeometry>
                </mxCell>
                <mxCell id="70" value="" style="edgeStyle=none;html=1;exitX=0.5;exitY=1;exitDx=0;exitDy=0;entryX=0.5;entryY=0;entryDx=0;entryDy=0;" parent="1" source="67" edge="1" target="109">
                    <mxGeometry relative="1" as="geometry">
                        <mxPoint x="250" y="1278" as="targetPoint"/>
                    </mxGeometry>
                </mxCell>
                <mxCell id="108" value="Mort" style="edgeLabel;html=1;align=center;verticalAlign=middle;resizable=0;points=[];" parent="70" vertex="1" connectable="0">
                    <mxGeometry x="-0.5857" relative="1" as="geometry">
                        <mxPoint y="19" as="offset"/>
                    </mxGeometry>
                </mxCell>
                <mxCell id="99" value="" style="edgeStyle=orthogonalEdgeStyle;html=1;elbow=vertical;" parent="1" source="67" target="98" edge="1">
                    <mxGeometry relative="1" as="geometry">
                        <Array as="points">
                            <mxPoint x="360" y="1147"/>
                            <mxPoint x="360" y="1147"/>
                        </Array>
                    </mxGeometry>
                </mxCell>
                <mxCell id="107" value="Vie" style="edgeLabel;html=1;align=center;verticalAlign=middle;resizable=0;points=[];" parent="99" vertex="1" connectable="0">
                    <mxGeometry x="0.2342" y="-1" relative="1" as="geometry">
                        <mxPoint x="-16" y="-1" as="offset"/>
                    </mxGeometry>
                </mxCell>
                <mxCell id="67" value="&lt;font style=&quot;font-size: 10px&quot;&gt;Les deux portes &lt;br&gt;finales se présentent à vous:&lt;br&gt;vie et mort&amp;nbsp;&lt;/font&gt;&amp;nbsp;" style="rhombus;whiteSpace=wrap;html=1;rounded=1;arcSize=0;" parent="1" vertex="1">
                    <mxGeometry x="182.81" y="1082.95" width="126.89" height="127.17" as="geometry"/>
                </mxCell>
                <mxCell id="88" style="edgeStyle=orthogonalEdgeStyle;html=1;exitX=0.5;exitY=0;exitDx=0;exitDy=0;entryX=1;entryY=0.5;entryDx=0;entryDy=0;elbow=vertical;" parent="1" source="74" target="3" edge="1">
                    <mxGeometry relative="1" as="geometry"/>
                </mxCell>
                <mxCell id="74" value="Le sphinx vous renvoie au début" style="whiteSpace=wrap;html=1;rounded=1;" parent="1" vertex="1">
                    <mxGeometry x="510" y="612.5" width="120" height="60" as="geometry"/>
                </mxCell>
                <mxCell id="139" style="edgeStyle=orthogonalEdgeStyle;html=1;exitX=0.5;exitY=0;exitDx=0;exitDy=0;entryX=1;entryY=0.5;entryDx=0;entryDy=0;fontSize=10;" edge="1" parent="1" source="84" target="3">
                    <mxGeometry relative="1" as="geometry"/>
                </mxCell>
                <mxCell id="138" style="html=1;exitX=0.5;exitY=0;exitDx=0;exitDy=0;entryX=0;entryY=0.5;entryDx=0;entryDy=0;fontSize=10;edgeStyle=orthogonalEdgeStyle;" edge="1" parent="1" source="86" target="3">
                    <mxGeometry relative="1" as="geometry"/>
                </mxCell>
                <mxCell id="86" value="Vous renvoi au début avec des clés" style="rounded=1;whiteSpace=wrap;html=1;arcSize=22;" parent="1" vertex="1">
                    <mxGeometry x="-130" y="780" width="120" height="70" as="geometry"/>
                </mxCell>
                <mxCell id="106" value="" style="edgeStyle=orthogonalEdgeStyle;html=1;elbow=vertical;" parent="1" source="92" target="105" edge="1">
                    <mxGeometry relative="1" as="geometry"/>
                </mxCell>
                <mxCell id="137" value="Non" style="edgeLabel;html=1;align=center;verticalAlign=middle;resizable=0;points=[];fontSize=10;" vertex="1" connectable="0" parent="106">
                    <mxGeometry x="-0.0365" y="1" relative="1" as="geometry">
                        <mxPoint x="-4" y="-1" as="offset"/>
                    </mxGeometry>
                </mxCell>
                <mxCell id="140" style="edgeStyle=orthogonalEdgeStyle;html=1;exitX=0.5;exitY=0;exitDx=0;exitDy=0;entryX=1;entryY=0.5;entryDx=0;entryDy=0;fontSize=10;startArrow=none;" edge="1" parent="1" source="84" target="3">
                    <mxGeometry relative="1" as="geometry"/>
                </mxCell>
                <mxCell id="143" style="edgeStyle=orthogonalEdgeStyle;html=1;exitX=1;exitY=0.5;exitDx=0;exitDy=0;entryX=1;entryY=0.5;entryDx=0;entryDy=0;fontSize=10;" edge="1" parent="1" source="92" target="3">
                    <mxGeometry relative="1" as="geometry">
                        <Array as="points">
                            <mxPoint x="720" y="990"/>
                            <mxPoint x="720" y="270"/>
                        </Array>
                    </mxGeometry>
                </mxCell>
                <mxCell id="92" value="Vous retournez au début" style="whiteSpace=wrap;html=1;rounded=1;arcSize=24;" parent="1" vertex="1">
                    <mxGeometry x="500" y="960.01" width="120" height="60" as="geometry"/>
                </mxCell>
                <mxCell id="141" style="edgeStyle=orthogonalEdgeStyle;html=1;exitX=0.5;exitY=0;exitDx=0;exitDy=0;fontSize=10;" edge="1" parent="1" source="98">
                    <mxGeometry relative="1" as="geometry">
                        <mxPoint x="310" y="270" as="targetPoint"/>
                        <Array as="points">
                            <mxPoint x="720" y="270"/>
                        </Array>
                    </mxGeometry>
                </mxCell>
                <mxCell id="98" value="On vous redonnes une vie et vous recommencez le jeu au complet" style="rounded=1;whiteSpace=wrap;html=1;arcSize=25;" parent="1" vertex="1">
                    <mxGeometry x="670" y="1130" width="120" height="60" as="geometry"/>
                </mxCell>
                <mxCell id="105" value="Avez-vous les clés" style="rhombus;whiteSpace=wrap;html=1;rounded=1;arcSize=0;" parent="1" vertex="1">
                    <mxGeometry x="198.13" y="941.88" width="96.25" height="96.25" as="geometry"/>
                </mxCell>
                <mxCell id="109" value="Vous mourrez dans le jeu mais retourner dans votre monde." style="whiteSpace=wrap;html=1;rounded=1;arcSize=25;" parent="1" vertex="1">
                    <mxGeometry x="182.81" y="1311.25" width="126.89" height="60" as="geometry"/>
                </mxCell>
                <mxCell id="124" value="Palette de couleur" style="text;html=1;align=center;verticalAlign=middle;resizable=0;points=[];autosize=1;strokeColor=none;fillColor=none;" parent="1" vertex="1">
                    <mxGeometry x="260" y="10" width="110" height="20" as="geometry"/>
                </mxCell>
                <mxCell id="127" value="" style="rounded=1;whiteSpace=wrap;html=1;labelBackgroundColor=#FFFFFF;fontColor=none;strokeColor=default;strokeWidth=1;fillColor=#000000;gradientColor=none;gradientDirection=west;arcSize=0;" parent="1" vertex="1">
                    <mxGeometry x="280" y="40" width="40" height="40" as="geometry"/>
                </mxCell>
                <mxCell id="128" value="" style="rounded=1;whiteSpace=wrap;html=1;labelBackgroundColor=#FFFFFF;fontColor=none;strokeColor=default;strokeWidth=1;fillColor=#79AD00;gradientColor=none;gradientDirection=west;arcSize=0;" parent="1" vertex="1">
                    <mxGeometry x="320" y="40" width="40" height="40" as="geometry"/>
                </mxCell>
                <mxCell id="129" value="" style="rounded=1;whiteSpace=wrap;html=1;labelBackgroundColor=#FFFFFF;fontColor=none;strokeColor=default;strokeWidth=1;fillColor=#4B660B;gradientColor=none;gradientDirection=west;arcSize=0;" parent="1" vertex="1">
                    <mxGeometry x="360" y="40" width="40" height="40" as="geometry"/>
                </mxCell>
                <mxCell id="131" value="" style="rounded=1;whiteSpace=wrap;html=1;labelBackgroundColor=#FFFFFF;fontColor=none;strokeColor=default;strokeWidth=1;fillColor=#AD6500;gradientColor=none;gradientDirection=west;arcSize=0;" parent="1" vertex="1">
                    <mxGeometry x="400" y="40" width="40" height="40" as="geometry"/>
                </mxCell>
                <mxCell id="132" value="" style="rounded=1;whiteSpace=wrap;html=1;labelBackgroundColor=#FFFFFF;fontColor=none;strokeColor=default;strokeWidth=1;fillColor=#FFFFFF;gradientColor=none;gradientDirection=west;arcSize=0;" parent="1" vertex="1">
                    <mxGeometry x="240" y="40" width="40" height="40" as="geometry"/>
                </mxCell>
                <mxCell id="133" value="&lt;h1 style=&quot;text-align: left ; font-size: 16px&quot;&gt;&lt;font style=&quot;font-weight: normal&quot; color=&quot;#000000&quot;&gt;Genre: Aventure&lt;/font&gt;&lt;/h1&gt;&lt;h1 style=&quot;text-align: left ; font-size: 16px&quot;&gt;&lt;span style=&quot;font-weight: normal&quot;&gt;&lt;font color=&quot;#000000&quot;&gt;Titre: Labyrinthe mystère&lt;/font&gt;&lt;/span&gt;&lt;/h1&gt;&lt;div style=&quot;text-align: left ; font-size: 16px&quot;&gt;&lt;font color=&quot;#000000&quot;&gt;inspiration: Jumanji&lt;/font&gt;&lt;/div&gt;&lt;div&gt;&lt;br&gt;&lt;/div&gt;" style="whiteSpace=wrap;html=1;aspect=fixed;fontColor=#FFFFFF;" parent="1" vertex="1">
                    <mxGeometry x="-16.25" y="30" width="200" height="200" as="geometry"/>
                </mxCell>
                <mxCell id="84" value="Vous renvoie au début" style="rounded=1;whiteSpace=wrap;html=1;arcSize=25;" parent="1" vertex="1">
                    <mxGeometry x="580" y="792.5" width="120" height="57.5" as="geometry"/>
                </mxCell>
            </root>
        </mxGraphModel>
    </diagram>
</mxfile>